<svg width="232" height="283" viewBox="0 0 232 283" fill="none" xmlns="http://www.w3.org/2000/svg">
<g clip-path="url(#clip0_1301_225)">
<path fill-rule="evenodd" clip-rule="evenodd" d="M75.0082 1.50008C74.1544 2.35388 74.0082 3.50008 74.0082 7.00008C74.0082 8.50008 74.0082 10.7884 74.0082 13.4551V22.0001H54.6222C35.3482 22.0001 35.2062 22.0161 29.8722 24.7931C25.7342 26.9481 23.7652 28.8241 21.2582 32.9991C19.4152 36.0681 18.0082 39.7821 18.0082 41.5781C18.0082 44.5261 17.7172 44.7911 13.7922 45.4191C8.56222 46.2551 3.24123 50.1981 1.40223 54.6001C-0.730774 59.7051 -0.383775 68.5311 2.12622 72.9961C4.57322 77.3491 10.3962 81.0001 14.8942 81.0001C16.6072 81.0001 18.0082 81.4991 18.0082 82.1091C18.0082 87.7701 24.0532 248.081 24.4522 253C25.1122 261.129 29.6232 270.712 34.8032 274.985C36.8412 276.665 40.9832 279.044 44.0082 280.27C49.4212 282.465 50.3412 282.505 102.416 282.792C134.342 282.968 155.695 282.713 156.26 282.148C156.84 281.568 158.582 281.596 160.852 282.223C166.754 283.853 177.187 282.636 183.409 279.592C190.55 276.099 198.269 267.672 200.659 260.762C203.451 252.69 203.089 241.941 199.785 234.78C196.727 228.152 190.036 221.218 184.128 218.554C180.281 216.819 180.007 216.425 179.988 212.598C179.95 204.915 184.063 93.5231 184.616 87.2501C185.166 81.0141 185.175 81.0001 188.338 80.9961C192.631 80.9911 197.376 77.9131 200.601 73.0391L203.274 69.0001H213.191C229.497 69.0001 232.008 66.4731 232.008 50.0651C232.008 40.5301 231.871 39.8791 229.258 36.9631C225.96 33.2831 221.368 32.0571 210.758 32.0241L203.008 32.0001V29.0001C203.008 27.3331 202.119 25.1111 201.008 24.0001C199.093 22.0851 197.675 22.0001 167.508 22.0001H136.008V13.0731C136.008 10.7921 136.028 8 136.008 5.5C135.989 3 135.649 2.1407 134.508 1.00008C133.97 0.461741 133.008 3.51393e-05 131.008 3.18677e-06C127.508 -1.91747e-05 120.28 8.34742e-05 104.828 8.34742e-05C104.828 8.34742e-05 81.3263 8.34742e-05 78.9172 8.34742e-05C76.5082 8.34742e-05 75.862 0.646289 75.0082 1.50008ZM87.0082 17.5001V22.0001H105.508H124.008V17.5001V13.0001H105.508H87.0082V17.5001ZM37.2202 35.1251C33.8342 36.1051 30.0192 40.9381 30.0122 44.2561C30.0082 45.9181 34.2942 45.9981 110.258 45.7561L190.508 45.5001V40.0001V34.5001L115.508 34.3371C70.4992 34.2391 39.1932 34.5541 37.2202 35.1251ZM203.008 50.9601V57.0001H211.558H220.108L219.808 51.2501L219.508 45.5001L211.258 45.2101L203.008 44.9191V50.9601ZM13.2082 59.2001C11.5092 60.8991 11.7202 65.5691 13.5792 67.4291C14.9842 68.8331 24.3842 69.0001 102.044 69.0001C186.93 69.0001 188.962 68.9551 189.973 67.0661C190.542 66.0021 191.008 63.5271 191.008 61.5661V58.0001H102.708C52.0221 58.0001 27.4521 58.1615 18.0082 58.6315C14.0082 58.6315 13.4346 58.9737 13.2082 59.2001ZM29.9882 81.7501C29.7672 90.1391 36.4392 253.599 37.1092 256.205C38.3362 260.981 42.1902 265.516 47.3842 268.294C51.4362 270.462 52.2922 270.505 96.6092 270.788L143.008 271.076C143.008 271.076 139.008 266 138.271 264.288C137.534 262.576 134.508 256 134.508 247C134.817 239.625 136.133 237.527 137.888 234.151C143.033 224.258 152.769 217.044 163.041 215.513L167.574 214.838L169.375 165.669C170.366 138.626 171.431 108.512 171.742 98.7501L172.308 81.0001H101.158C62.0262 81.0001 29.9992 81.3381 29.9882 81.7501ZM162.348 228.383C156.037 230.435 152.445 233.483 149.594 239.203C139.136 260.189 162.976 280.257 181.779 266.295C186.042 263.13 188.053 259.955 189.619 253.92C193.726 238.087 177.946 223.31 162.348 228.383ZM164.231 243.557C161.264 245.635 161.144 251.908 164.021 254.512C168.634 258.686 176.008 255.508 176.008 249.345C176.008 243.092 169.477 239.882 164.231 243.557Z" fill="black"/>
</g>
<defs>
<clipPath id="clip0_1301_225">
<rect width="232" height="283" fill="white"/>
</clipPath>
</defs>
</svg>
